%TF.GenerationSoftware,KiCad,Pcbnew,9.0.7*%
%TF.CreationDate,2026-01-23T21:04:58+02:00*%
%TF.ProjectId,bSafe-charger-block,62536166-652d-4636-9861-726765722d62,rev?*%
%TF.SameCoordinates,Original*%
%TF.FileFunction,Soldermask,Bot*%
%TF.FilePolarity,Negative*%
%FSLAX46Y46*%
G04 Gerber Fmt 4.6, Leading zero omitted, Abs format (unit mm)*
G04 Created by KiCad (PCBNEW 9.0.7) date 2026-01-23 21:04:58*
%MOMM*%
%LPD*%
G01*
G04 APERTURE LIST*
G04 Aperture macros list*
%AMRoundRect*
0 Rectangle with rounded corners*
0 $1 Rounding radius*
0 $2 $3 $4 $5 $6 $7 $8 $9 X,Y pos of 4 corners*
0 Add a 4 corners polygon primitive as box body*
4,1,4,$2,$3,$4,$5,$6,$7,$8,$9,$2,$3,0*
0 Add four circle primitives for the rounded corners*
1,1,$1+$1,$2,$3*
1,1,$1+$1,$4,$5*
1,1,$1+$1,$6,$7*
1,1,$1+$1,$8,$9*
0 Add four rect primitives between the rounded corners*
20,1,$1+$1,$2,$3,$4,$5,0*
20,1,$1+$1,$4,$5,$6,$7,0*
20,1,$1+$1,$6,$7,$8,$9,0*
20,1,$1+$1,$8,$9,$2,$3,0*%
G04 Aperture macros list end*
%ADD10C,4.050000*%
%ADD11C,0.100000*%
%ADD12C,0.800000*%
%ADD13R,1.700000X1.700000*%
%ADD14C,1.700000*%
%ADD15O,1.700000X1.700000*%
%ADD16C,0.650000*%
%ADD17O,1.000000X2.100000*%
%ADD18O,1.000000X1.800000*%
%ADD19C,4.000000*%
%ADD20RoundRect,0.800000X1.200000X1.200000X-1.200000X1.200000X-1.200000X-1.200000X1.200000X-1.200000X0*%
%ADD21C,1.600000*%
%ADD22O,2.100000X1.000000*%
%ADD23O,1.800000X1.000000*%
%ADD24RoundRect,0.250000X0.620000X0.845000X-0.620000X0.845000X-0.620000X-0.845000X0.620000X-0.845000X0*%
%ADD25O,1.740000X2.190000*%
%ADD26C,1.500000*%
G04 APERTURE END LIST*
D10*
X138025000Y-114000000D02*
G75*
G02*
X133975000Y-114000000I-2025000J0D01*
G01*
X133975000Y-114000000D02*
G75*
G02*
X138025000Y-114000000I2025000J0D01*
G01*
D11*
X119000000Y-172300000D02*
X119000000Y-180000000D01*
X102500000Y-180000000D01*
X102500000Y-172200000D01*
X104700000Y-170000000D01*
X116700000Y-170000000D01*
X119000000Y-172300000D01*
G36*
X119000000Y-172300000D02*
G01*
X119000000Y-180000000D01*
X102500000Y-180000000D01*
X102500000Y-172200000D01*
X104700000Y-170000000D01*
X116700000Y-170000000D01*
X119000000Y-172300000D01*
G37*
D10*
X27025000Y-114000000D02*
G75*
G02*
X22975000Y-114000000I-2025000J0D01*
G01*
X22975000Y-114000000D02*
G75*
G02*
X27025000Y-114000000I2025000J0D01*
G01*
D11*
X51500000Y-170000000D02*
X59500000Y-170000000D01*
X61500000Y-172000000D01*
X61500000Y-180000000D01*
X43500000Y-180000000D01*
X43500000Y-171500000D01*
X46500000Y-168500000D01*
X50000000Y-168500000D01*
X51500000Y-170000000D01*
G36*
X51500000Y-170000000D02*
G01*
X59500000Y-170000000D01*
X61500000Y-172000000D01*
X61500000Y-180000000D01*
X43500000Y-180000000D01*
X43500000Y-171500000D01*
X46500000Y-168500000D01*
X50000000Y-168500000D01*
X51500000Y-170000000D01*
G37*
D12*
X87400000Y-138000000D02*
G75*
G02*
X86600000Y-138000000I-400000J0D01*
G01*
X86600000Y-138000000D02*
G75*
G02*
X87400000Y-138000000I400000J0D01*
G01*
D10*
X138025000Y-176000000D02*
G75*
G02*
X133975000Y-176000000I-2025000J0D01*
G01*
X133975000Y-176000000D02*
G75*
G02*
X138025000Y-176000000I2025000J0D01*
G01*
X27025000Y-176000000D02*
G75*
G02*
X22975000Y-176000000I-2025000J0D01*
G01*
X22975000Y-176000000D02*
G75*
G02*
X27025000Y-176000000I2025000J0D01*
G01*
D12*
X87400000Y-140500000D02*
G75*
G02*
X86600000Y-140500000I-400000J0D01*
G01*
X86600000Y-140500000D02*
G75*
G02*
X87400000Y-140500000I400000J0D01*
G01*
D13*
%TO.C,J6*%
X80500000Y-117290000D03*
D14*
X80500000Y-114750000D03*
X80500000Y-112210000D03*
%TD*%
D13*
%TO.C,J5*%
X91810000Y-171500000D03*
D15*
X89270000Y-171500000D03*
X86730000Y-171500000D03*
X84190000Y-171500000D03*
%TD*%
D16*
%TO.C,J1*%
X46890000Y-115605000D03*
X41110000Y-115605000D03*
D17*
X48320000Y-116125000D03*
D18*
X48320000Y-111925000D03*
D17*
X39680000Y-116125000D03*
D18*
X39680000Y-111925000D03*
%TD*%
D19*
%TO.C,J3*%
X53700000Y-113500000D03*
D20*
X58700000Y-113500000D03*
D21*
X62700000Y-114500000D03*
X62700000Y-112500000D03*
%TD*%
D16*
%TO.C,J2*%
X134395000Y-167890000D03*
X134395000Y-162110000D03*
D22*
X133875000Y-169320000D03*
D23*
X138075000Y-169320000D03*
D22*
X133875000Y-160680000D03*
D23*
X138075000Y-160680000D03*
%TD*%
D13*
%TO.C,J8*%
X112000000Y-132000000D03*
D14*
X114540000Y-132000000D03*
X117080000Y-132000000D03*
%TD*%
D13*
%TO.C,J7*%
X80801639Y-128657624D03*
D14*
X80801639Y-131197624D03*
X80801639Y-133737624D03*
%TD*%
D24*
%TO.C,M1*%
X104000000Y-141500000D03*
D25*
X101460000Y-141500000D03*
X98920000Y-141500000D03*
%TD*%
D13*
%TO.C,J4*%
X99000000Y-136400000D03*
D14*
X101540000Y-136400000D03*
X104080000Y-136400000D03*
%TD*%
D26*
%TO.C,TP12*%
X89000000Y-118000000D03*
%TD*%
%TO.C,TP14*%
X85500000Y-118000000D03*
%TD*%
M02*
