%TF.GenerationSoftware,KiCad,Pcbnew,9.0.7*%
%TF.CreationDate,2026-01-23T21:04:57+02:00*%
%TF.ProjectId,bSafe-charger-block,62536166-652d-4636-9861-726765722d62,rev?*%
%TF.SameCoordinates,Original*%
%TF.FileFunction,Paste,Top*%
%TF.FilePolarity,Positive*%
%FSLAX46Y46*%
G04 Gerber Fmt 4.6, Leading zero omitted, Abs format (unit mm)*
G04 Created by KiCad (PCBNEW 9.0.7) date 2026-01-23 21:04:57*
%MOMM*%
%LPD*%
G01*
G04 APERTURE LIST*
G04 Aperture macros list*
%AMRoundRect*
0 Rectangle with rounded corners*
0 $1 Rounding radius*
0 $2 $3 $4 $5 $6 $7 $8 $9 X,Y pos of 4 corners*
0 Add a 4 corners polygon primitive as box body*
4,1,4,$2,$3,$4,$5,$6,$7,$8,$9,$2,$3,0*
0 Add four circle primitives for the rounded corners*
1,1,$1+$1,$2,$3*
1,1,$1+$1,$4,$5*
1,1,$1+$1,$6,$7*
1,1,$1+$1,$8,$9*
0 Add four rect primitives between the rounded corners*
20,1,$1+$1,$2,$3,$4,$5,0*
20,1,$1+$1,$4,$5,$6,$7,0*
20,1,$1+$1,$6,$7,$8,$9,0*
20,1,$1+$1,$8,$9,$2,$3,0*%
%AMFreePoly0*
4,1,6,0.725000,-0.725000,-0.725000,-0.725000,-0.725000,0.125000,-0.125000,0.725000,0.725000,0.725000,0.725000,-0.725000,0.725000,-0.725000,$1*%
G04 Aperture macros list end*
%ADD10RoundRect,0.140000X-0.170000X0.140000X-0.170000X-0.140000X0.170000X-0.140000X0.170000X0.140000X0*%
%ADD11RoundRect,0.135000X0.135000X0.185000X-0.135000X0.185000X-0.135000X-0.185000X0.135000X-0.185000X0*%
%ADD12RoundRect,0.135000X-0.185000X0.135000X-0.185000X-0.135000X0.185000X-0.135000X0.185000X0.135000X0*%
%ADD13RoundRect,0.225000X-0.250000X0.225000X-0.250000X-0.225000X0.250000X-0.225000X0.250000X0.225000X0*%
%ADD14RoundRect,0.250000X0.250000X0.475000X-0.250000X0.475000X-0.250000X-0.475000X0.250000X-0.475000X0*%
%ADD15RoundRect,0.135000X-0.135000X-0.185000X0.135000X-0.185000X0.135000X0.185000X-0.135000X0.185000X0*%
%ADD16RoundRect,0.249999X-0.450001X-1.425001X0.450001X-1.425001X0.450001X1.425001X-0.450001X1.425001X0*%
%ADD17RoundRect,0.135000X-0.035355X0.226274X-0.226274X0.035355X0.035355X-0.226274X0.226274X-0.035355X0*%
%ADD18R,1.000000X0.600000*%
%ADD19RoundRect,0.250000X-0.250000X-0.475000X0.250000X-0.475000X0.250000X0.475000X-0.250000X0.475000X0*%
%ADD20RoundRect,0.225000X0.225000X0.250000X-0.225000X0.250000X-0.225000X-0.250000X0.225000X-0.250000X0*%
%ADD21RoundRect,0.250000X0.475000X-0.250000X0.475000X0.250000X-0.475000X0.250000X-0.475000X-0.250000X0*%
%ADD22RoundRect,0.140000X0.170000X-0.140000X0.170000X0.140000X-0.170000X0.140000X-0.170000X-0.140000X0*%
%ADD23RoundRect,0.135000X0.185000X-0.135000X0.185000X0.135000X-0.185000X0.135000X-0.185000X-0.135000X0*%
%ADD24RoundRect,0.150000X0.587500X0.150000X-0.587500X0.150000X-0.587500X-0.150000X0.587500X-0.150000X0*%
%ADD25R,0.600000X1.240000*%
%ADD26R,0.300000X1.240000*%
%ADD27RoundRect,0.147500X-0.172500X0.147500X-0.172500X-0.147500X0.172500X-0.147500X0.172500X0.147500X0*%
%ADD28RoundRect,0.250000X0.550000X-1.500000X0.550000X1.500000X-0.550000X1.500000X-0.550000X-1.500000X0*%
%ADD29RoundRect,0.140000X0.140000X0.170000X-0.140000X0.170000X-0.140000X-0.170000X0.140000X-0.170000X0*%
%ADD30RoundRect,0.170000X-0.680000X-0.780000X0.680000X-0.780000X0.680000X0.780000X-0.680000X0.780000X0*%
%ADD31R,1.240000X0.600000*%
%ADD32R,1.240000X0.300000*%
%ADD33RoundRect,0.150000X0.825000X0.150000X-0.825000X0.150000X-0.825000X-0.150000X0.825000X-0.150000X0*%
%ADD34RoundRect,0.150000X0.512500X0.150000X-0.512500X0.150000X-0.512500X-0.150000X0.512500X-0.150000X0*%
%ADD35RoundRect,0.375000X-0.375000X0.625000X-0.375000X-0.625000X0.375000X-0.625000X0.375000X0.625000X0*%
%ADD36RoundRect,0.500000X-1.400000X0.500000X-1.400000X-0.500000X1.400000X-0.500000X1.400000X0.500000X0*%
%ADD37RoundRect,0.250000X-0.350000X-0.450000X0.350000X-0.450000X0.350000X0.450000X-0.350000X0.450000X0*%
%ADD38R,5.700000X1.600000*%
%ADD39RoundRect,0.225000X-0.225000X-0.250000X0.225000X-0.250000X0.225000X0.250000X-0.225000X0.250000X0*%
%ADD40RoundRect,0.075000X-0.650000X-0.075000X0.650000X-0.075000X0.650000X0.075000X-0.650000X0.075000X0*%
%ADD41RoundRect,0.172500X0.232500X0.172500X-0.232500X0.172500X-0.232500X-0.172500X0.232500X-0.172500X0*%
%ADD42RoundRect,0.075000X0.247500X0.075000X-0.247500X0.075000X-0.247500X-0.075000X0.247500X-0.075000X0*%
%ADD43RoundRect,0.250000X-0.475000X0.250000X-0.475000X-0.250000X0.475000X-0.250000X0.475000X0.250000X0*%
%ADD44R,0.400000X0.800000*%
%ADD45R,0.800000X0.400000*%
%ADD46FreePoly0,270.000000*%
%ADD47R,1.450000X1.450000*%
%ADD48R,0.700000X0.700000*%
%ADD49RoundRect,0.170000X0.680000X0.780000X-0.680000X0.780000X-0.680000X-0.780000X0.680000X-0.780000X0*%
%ADD50RoundRect,0.140000X-0.140000X-0.170000X0.140000X-0.170000X0.140000X0.170000X-0.140000X0.170000X0*%
%ADD51RoundRect,0.249999X-1.425001X0.450001X-1.425001X-0.450001X1.425001X-0.450001X1.425001X0.450001X0*%
%ADD52RoundRect,0.135000X0.035355X-0.226274X0.226274X-0.035355X-0.035355X0.226274X-0.226274X0.035355X0*%
%ADD53RoundRect,0.150000X-0.512500X-0.150000X0.512500X-0.150000X0.512500X0.150000X-0.512500X0.150000X0*%
%ADD54RoundRect,0.249999X1.425001X-0.450001X1.425001X0.450001X-1.425001X0.450001X-1.425001X-0.450001X0*%
%ADD55RoundRect,0.150000X0.150000X-0.587500X0.150000X0.587500X-0.150000X0.587500X-0.150000X-0.587500X0*%
%ADD56RoundRect,0.250000X-0.595000X-1.080000X0.595000X-1.080000X0.595000X1.080000X-0.595000X1.080000X0*%
%ADD57RoundRect,0.150000X-0.687500X-0.150000X0.687500X-0.150000X0.687500X0.150000X-0.687500X0.150000X0*%
%ADD58RoundRect,0.147500X0.017678X-0.226274X0.226274X-0.017678X-0.017678X0.226274X-0.226274X0.017678X0*%
%ADD59RoundRect,0.162500X0.825000X0.162500X-0.825000X0.162500X-0.825000X-0.162500X0.825000X-0.162500X0*%
%ADD60RoundRect,0.250000X-0.315000X0.315000X-0.315000X-0.315000X0.315000X-0.315000X0.315000X0.315000X0*%
%ADD61RoundRect,0.062500X-0.062500X0.350000X-0.062500X-0.350000X0.062500X-0.350000X0.062500X0.350000X0*%
%ADD62RoundRect,0.062500X-0.350000X0.062500X-0.350000X-0.062500X0.350000X-0.062500X0.350000X0.062500X0*%
%ADD63RoundRect,0.250000X0.650000X-1.000000X0.650000X1.000000X-0.650000X1.000000X-0.650000X-1.000000X0*%
%ADD64R,3.400000X2.000000*%
%ADD65RoundRect,0.075000X-0.075000X0.650000X-0.075000X-0.650000X0.075000X-0.650000X0.075000X0.650000X0*%
%ADD66R,0.640000X0.640000*%
%ADD67RoundRect,0.070000X-0.070000X0.355000X-0.070000X-0.355000X0.070000X-0.355000X0.070000X0.355000X0*%
%ADD68R,0.700000X0.280000*%
%ADD69RoundRect,0.150000X-0.150000X0.587500X-0.150000X-0.587500X0.150000X-0.587500X0.150000X0.587500X0*%
%ADD70RoundRect,0.100000X-0.637500X-0.100000X0.637500X-0.100000X0.637500X0.100000X-0.637500X0.100000X0*%
%ADD71RoundRect,0.147500X0.172500X-0.147500X0.172500X0.147500X-0.172500X0.147500X-0.172500X-0.147500X0*%
%ADD72RoundRect,0.190000X0.610000X0.190000X-0.610000X0.190000X-0.610000X-0.190000X0.610000X-0.190000X0*%
%ADD73RoundRect,0.147500X0.147500X0.172500X-0.147500X0.172500X-0.147500X-0.172500X0.147500X-0.172500X0*%
G04 APERTURE END LIST*
D10*
%TO.C,C15*%
X49800000Y-111920000D03*
X49800000Y-112880000D03*
%TD*%
D11*
%TO.C,R8*%
X49160000Y-151000000D03*
X48140000Y-151000000D03*
%TD*%
D12*
%TO.C,R18*%
X130500000Y-167490000D03*
X130500000Y-168510000D03*
%TD*%
D13*
%TO.C,C29*%
X104400000Y-149025000D03*
X104400000Y-150575000D03*
%TD*%
D14*
%TO.C,C44*%
X59900000Y-146300000D03*
X58000000Y-146300000D03*
%TD*%
D15*
%TO.C,R11*%
X46190000Y-157000000D03*
X47210000Y-157000000D03*
%TD*%
D10*
%TO.C,C33*%
X112300000Y-163720000D03*
X112300000Y-164680000D03*
%TD*%
D16*
%TO.C,R69*%
X31950000Y-152500000D03*
X38050000Y-152500000D03*
%TD*%
D12*
%TO.C,R39*%
X126400000Y-123990000D03*
X126400000Y-125010000D03*
%TD*%
D17*
%TO.C,R23*%
X70800000Y-124900000D03*
X70078752Y-125621248D03*
%TD*%
D16*
%TO.C,R72*%
X31950000Y-140500000D03*
X38050000Y-140500000D03*
%TD*%
D15*
%TO.C,R35*%
X116690000Y-162700000D03*
X117710000Y-162700000D03*
%TD*%
D18*
%TO.C,D10*%
X89000000Y-177150000D03*
X89000000Y-175850000D03*
X87000000Y-175850000D03*
X87000000Y-177150000D03*
%TD*%
D19*
%TO.C,C12*%
X51050000Y-161550000D03*
X52950000Y-161550000D03*
%TD*%
D20*
%TO.C,C56*%
X31075000Y-117300000D03*
X29525000Y-117300000D03*
%TD*%
D21*
%TO.C,C18*%
X50300000Y-119900000D03*
X50300000Y-118000000D03*
%TD*%
D19*
%TO.C,C46*%
X51050000Y-163550000D03*
X52950000Y-163550000D03*
%TD*%
D14*
%TO.C,C38*%
X63650000Y-143400000D03*
X61750000Y-143400000D03*
%TD*%
D15*
%TO.C,R16*%
X137500000Y-158850000D03*
X138520000Y-158850000D03*
%TD*%
D10*
%TO.C,C34*%
X116687842Y-163720000D03*
X116687842Y-164680000D03*
%TD*%
D22*
%TO.C,C32*%
X112300000Y-155280000D03*
X112300000Y-154320000D03*
%TD*%
D12*
%TO.C,R43*%
X113300000Y-163690000D03*
X113300000Y-164710000D03*
%TD*%
D23*
%TO.C,R21*%
X40200000Y-162110000D03*
X40200000Y-161090000D03*
%TD*%
D24*
%TO.C,D2*%
X42337500Y-122000000D03*
X42337500Y-120100000D03*
X40462500Y-121050000D03*
%TD*%
D23*
%TO.C,R29*%
X96600000Y-144110000D03*
X96600000Y-143090000D03*
%TD*%
%TO.C,R50*%
X135500000Y-157410000D03*
X135500000Y-156390000D03*
%TD*%
D11*
%TO.C,R20*%
X131210000Y-160100000D03*
X130190000Y-160100000D03*
%TD*%
D25*
%TO.C,J1*%
X47200000Y-116725000D03*
X46400000Y-116725000D03*
D26*
X45250000Y-116725000D03*
X44250000Y-116725000D03*
X43750000Y-116725000D03*
X42750000Y-116725000D03*
D25*
X41600000Y-116725000D03*
X40800000Y-116725000D03*
X40800000Y-116725000D03*
X41600000Y-116725000D03*
D26*
X42250000Y-116725000D03*
X43250000Y-116725000D03*
X44750000Y-116725000D03*
X45750000Y-116725000D03*
D25*
X46400000Y-116725000D03*
X47200000Y-116725000D03*
%TD*%
D27*
%TO.C,D14*%
X135500000Y-154515000D03*
X135500000Y-155485000D03*
%TD*%
D28*
%TO.C,C37*%
X115000000Y-148700000D03*
X115000000Y-143300000D03*
%TD*%
D12*
%TO.C,R30*%
X105400000Y-131190000D03*
X105400000Y-132210000D03*
%TD*%
D24*
%TO.C,D3*%
X130937500Y-166250000D03*
X130937500Y-164350000D03*
X129062500Y-165300000D03*
%TD*%
D11*
%TO.C,R14*%
X46510000Y-142000000D03*
X45490000Y-142000000D03*
%TD*%
D10*
%TO.C,C1*%
X47177500Y-119170000D03*
X47177500Y-120130000D03*
%TD*%
D29*
%TO.C,C30*%
X126500000Y-126000000D03*
X125540000Y-126000000D03*
%TD*%
D30*
%TO.C,SW3*%
X105800000Y-152500000D03*
X111200000Y-152500000D03*
%TD*%
D12*
%TO.C,R25*%
X85200000Y-168290000D03*
X85200000Y-169310000D03*
%TD*%
D14*
%TO.C,C5*%
X55800000Y-151050000D03*
X53900000Y-151050000D03*
%TD*%
D11*
%TO.C,R45*%
X60410000Y-137450000D03*
X59390000Y-137450000D03*
%TD*%
D23*
%TO.C,R53*%
X54750000Y-133635000D03*
X54750000Y-132615000D03*
%TD*%
D31*
%TO.C,J2*%
X133275000Y-168200000D03*
X133275000Y-167400000D03*
D32*
X133275000Y-166250000D03*
X133275000Y-165250000D03*
X133275000Y-164750000D03*
X133275000Y-163750000D03*
D31*
X133275000Y-162600000D03*
X133275000Y-161800000D03*
X133275000Y-161800000D03*
X133275000Y-162600000D03*
D32*
X133275000Y-163250000D03*
X133275000Y-164250000D03*
X133275000Y-165750000D03*
X133275000Y-166750000D03*
D31*
X133275000Y-167400000D03*
X133275000Y-168200000D03*
%TD*%
D33*
%TO.C,U7*%
X90475000Y-114905000D03*
X90475000Y-113635000D03*
X90475000Y-112365000D03*
X90475000Y-111095000D03*
X85525000Y-111095000D03*
X85525000Y-112365000D03*
X85525000Y-113635000D03*
X85525000Y-114905000D03*
%TD*%
D34*
%TO.C,U8*%
X59037500Y-140450000D03*
X59037500Y-139500000D03*
X59037500Y-138550000D03*
X56762500Y-138550000D03*
X56762500Y-139500000D03*
X56762500Y-140450000D03*
%TD*%
D35*
%TO.C,U9*%
X133700000Y-152050000D03*
X131400000Y-152050000D03*
D36*
X131400000Y-158350000D03*
D35*
X129100000Y-152050000D03*
%TD*%
D13*
%TO.C,C27*%
X92550000Y-112175000D03*
X92550000Y-113725000D03*
%TD*%
D11*
%TO.C,R32*%
X86010000Y-116300000D03*
X84990000Y-116300000D03*
%TD*%
D37*
%TO.C,R10*%
X87000000Y-142000000D03*
X89000000Y-142000000D03*
%TD*%
D38*
%TO.C,L2*%
X67900000Y-139700000D03*
X67900000Y-144400000D03*
%TD*%
D20*
%TO.C,C50*%
X53225000Y-140450000D03*
X51675000Y-140450000D03*
%TD*%
D11*
%TO.C,R19*%
X131210000Y-161100000D03*
X130190000Y-161100000D03*
%TD*%
D16*
%TO.C,R61*%
X24950000Y-129500000D03*
X31050000Y-129500000D03*
%TD*%
D20*
%TO.C,C19*%
X41475000Y-118600000D03*
X39925000Y-118600000D03*
%TD*%
D21*
%TO.C,C47*%
X63350000Y-140350000D03*
X63350000Y-138450000D03*
%TD*%
D11*
%TO.C,R22*%
X41710000Y-156700000D03*
X40690000Y-156700000D03*
%TD*%
D12*
%TO.C,R28*%
X86700000Y-168290000D03*
X86700000Y-169310000D03*
%TD*%
D19*
%TO.C,C8*%
X56950000Y-153650000D03*
X58850000Y-153650000D03*
%TD*%
D39*
%TO.C,C42*%
X47850000Y-159600000D03*
X49400000Y-159600000D03*
%TD*%
D16*
%TO.C,R73*%
X35950000Y-130000000D03*
X42050000Y-130000000D03*
%TD*%
D18*
%TO.C,D19*%
X121000000Y-160150000D03*
X121000000Y-158850000D03*
X119000000Y-158850000D03*
X119000000Y-160150000D03*
%TD*%
D40*
%TO.C,U5*%
X44600000Y-143250000D03*
X44600000Y-143750000D03*
X44600000Y-144250000D03*
X44600000Y-144750000D03*
X44600000Y-145250000D03*
X49000000Y-145250000D03*
X49000000Y-144750000D03*
X49000000Y-144250000D03*
X49000000Y-143750000D03*
X49000000Y-143250000D03*
%TD*%
D41*
%TO.C,U6*%
X45100000Y-119725000D03*
X45100000Y-118875000D03*
D42*
X46127500Y-119950000D03*
X46127500Y-119300000D03*
X46127500Y-118650000D03*
X44072500Y-118650000D03*
X44072500Y-119300000D03*
X44072500Y-119950000D03*
%TD*%
D39*
%TO.C,C4*%
X53925000Y-152800000D03*
X55475000Y-152800000D03*
%TD*%
D12*
%TO.C,R34*%
X83050000Y-113990000D03*
X83050000Y-115010000D03*
%TD*%
%TO.C,R44*%
X117700000Y-163690000D03*
X117700000Y-164710000D03*
%TD*%
D11*
%TO.C,R36*%
X113310000Y-162700000D03*
X112290000Y-162700000D03*
%TD*%
D15*
%TO.C,R51*%
X93690000Y-121200000D03*
X94710000Y-121200000D03*
%TD*%
D43*
%TO.C,C39*%
X126700000Y-154450000D03*
X126700000Y-156350000D03*
%TD*%
D12*
%TO.C,R24*%
X84200000Y-168290000D03*
X84200000Y-169310000D03*
%TD*%
D11*
%TO.C,R49*%
X58310000Y-144800000D03*
X57290000Y-144800000D03*
%TD*%
D12*
%TO.C,R15*%
X49800000Y-115090000D03*
X49800000Y-116110000D03*
%TD*%
%TO.C,R4*%
X44700000Y-155740000D03*
X44700000Y-156760000D03*
%TD*%
D44*
%TO.C,U2*%
X133000000Y-128600000D03*
X132200000Y-128600000D03*
X131400000Y-128600000D03*
X130600000Y-128600000D03*
X129800000Y-128600000D03*
X129000000Y-128600000D03*
X128200000Y-128600000D03*
X127400000Y-128600000D03*
X126600000Y-128600000D03*
X125800000Y-128600000D03*
X125000000Y-128600000D03*
D45*
X124100000Y-129700000D03*
X124100000Y-130500000D03*
X124100000Y-131300000D03*
X124100000Y-132100000D03*
X124100000Y-132900000D03*
X124100000Y-133700000D03*
X124100000Y-134500000D03*
X124100000Y-135300000D03*
X124100000Y-136100000D03*
X124100000Y-136900000D03*
X124100000Y-137700000D03*
X124100000Y-138500000D03*
X124100000Y-139300000D03*
D44*
X125000000Y-140400000D03*
X125800000Y-140400000D03*
X126600000Y-140400000D03*
X127400000Y-140400000D03*
X128200000Y-140400000D03*
X129000000Y-140400000D03*
X129800000Y-140400000D03*
X130600000Y-140400000D03*
X131400000Y-140400000D03*
X132200000Y-140400000D03*
X133000000Y-140400000D03*
D45*
X133900000Y-139300000D03*
X133900000Y-138500000D03*
X133900000Y-137700000D03*
X133900000Y-136900000D03*
X133900000Y-136100000D03*
X133900000Y-135300000D03*
X133900000Y-134500000D03*
X133900000Y-133700000D03*
X133900000Y-132900000D03*
X133900000Y-132100000D03*
X133900000Y-131300000D03*
X133900000Y-130500000D03*
X133900000Y-129700000D03*
D46*
X130975000Y-132525000D03*
D47*
X129000000Y-132525000D03*
X127025000Y-132525000D03*
X130975000Y-134500000D03*
X129000000Y-134500000D03*
X127025000Y-134500000D03*
X130975000Y-136475000D03*
X129000000Y-136475000D03*
X127025000Y-136475000D03*
D48*
X133950000Y-140450000D03*
X124050000Y-140450000D03*
X124050000Y-128550000D03*
X133950000Y-128550000D03*
%TD*%
D15*
%TO.C,R5*%
X46540000Y-153750000D03*
X47560000Y-153750000D03*
%TD*%
D18*
%TO.C,D18*%
X116100000Y-160150000D03*
X116100000Y-158850000D03*
X114100000Y-158850000D03*
X114100000Y-160150000D03*
%TD*%
D11*
%TO.C,R3*%
X47210000Y-158100000D03*
X46190000Y-158100000D03*
%TD*%
D29*
%TO.C,C7*%
X55430000Y-155100000D03*
X54470000Y-155100000D03*
%TD*%
D49*
%TO.C,SW1*%
X124200000Y-124500000D03*
X118800000Y-124500000D03*
%TD*%
D29*
%TO.C,C2*%
X132460000Y-126800000D03*
X131500000Y-126800000D03*
%TD*%
D50*
%TO.C,C16*%
X135530000Y-158850000D03*
X136490000Y-158850000D03*
%TD*%
D20*
%TO.C,C3*%
X133355000Y-125000000D03*
X131805000Y-125000000D03*
%TD*%
D51*
%TO.C,R12*%
X48350000Y-163500000D03*
X48350000Y-169600000D03*
%TD*%
D12*
%TO.C,R17*%
X131500000Y-167490000D03*
X131500000Y-168510000D03*
%TD*%
D52*
%TO.C,R27*%
X121789376Y-138560624D03*
X122510624Y-137839376D03*
%TD*%
D29*
%TO.C,C36*%
X58280000Y-143800000D03*
X57320000Y-143800000D03*
%TD*%
D10*
%TO.C,C26*%
X70600000Y-112020000D03*
X70600000Y-112980000D03*
%TD*%
D53*
%TO.C,D7*%
X66862500Y-112550000D03*
X66862500Y-114450000D03*
X69137500Y-113500000D03*
%TD*%
D15*
%TO.C,R57*%
X52840000Y-138900000D03*
X53860000Y-138900000D03*
%TD*%
%TO.C,R46*%
X59440000Y-136400000D03*
X60460000Y-136400000D03*
%TD*%
D22*
%TO.C,C14*%
X49350000Y-147180000D03*
X49350000Y-146220000D03*
%TD*%
D15*
%TO.C,R13*%
X42890000Y-158600000D03*
X43910000Y-158600000D03*
%TD*%
D13*
%TO.C,C43*%
X42900000Y-154825000D03*
X42900000Y-156375000D03*
%TD*%
D10*
%TO.C,C20*%
X41000000Y-154120000D03*
X41000000Y-155080000D03*
%TD*%
D39*
%TO.C,C45*%
X124975000Y-161750000D03*
X126525000Y-161750000D03*
%TD*%
D20*
%TO.C,C54*%
X48125000Y-146800000D03*
X46575000Y-146800000D03*
%TD*%
D16*
%TO.C,R66*%
X23950000Y-144500000D03*
X30050000Y-144500000D03*
%TD*%
D20*
%TO.C,C24*%
X91125000Y-168950000D03*
X89575000Y-168950000D03*
%TD*%
D54*
%TO.C,R7*%
X52500000Y-148250000D03*
X52500000Y-142150000D03*
%TD*%
D15*
%TO.C,R58*%
X121611279Y-129688958D03*
X122631279Y-129688958D03*
%TD*%
D55*
%TO.C,Q2*%
X41000000Y-152100000D03*
X42900000Y-152100000D03*
X41950000Y-150225000D03*
%TD*%
D14*
%TO.C,C6*%
X49450000Y-161450000D03*
X47550000Y-161450000D03*
%TD*%
D18*
%TO.C,D16*%
X106000000Y-160150000D03*
X106000000Y-158850000D03*
X104000000Y-158850000D03*
X104000000Y-160150000D03*
%TD*%
D13*
%TO.C,C21*%
X61600000Y-138414891D03*
X61600000Y-139964891D03*
%TD*%
D12*
%TO.C,R77*%
X29700000Y-110915237D03*
X29700000Y-111935237D03*
%TD*%
%TO.C,R6*%
X94200000Y-122690000D03*
X94200000Y-123710000D03*
%TD*%
%TO.C,R33*%
X96600000Y-141190000D03*
X96600000Y-142210000D03*
%TD*%
D14*
%TO.C,C17*%
X131350000Y-162600000D03*
X129450000Y-162600000D03*
%TD*%
D56*
%TO.C,U1*%
X34000000Y-114000000D03*
D57*
X31362500Y-112000000D03*
X31362500Y-113000000D03*
X31362500Y-114000000D03*
X31362500Y-115000000D03*
X31362500Y-116000000D03*
X36637500Y-116000000D03*
X36637500Y-115000000D03*
X36637500Y-114000000D03*
X36637500Y-113000000D03*
X36637500Y-112000000D03*
%TD*%
D15*
%TO.C,R47*%
X57290000Y-142800000D03*
X58310000Y-142800000D03*
%TD*%
D20*
%TO.C,C11*%
X52675000Y-159800000D03*
X51125000Y-159800000D03*
%TD*%
D18*
%TO.C,D15*%
X101000000Y-177150000D03*
X101000000Y-175850000D03*
X99000000Y-175850000D03*
X99000000Y-177150000D03*
%TD*%
D58*
%TO.C,D5*%
X69557053Y-124442947D03*
X70242947Y-123757053D03*
%TD*%
D11*
%TO.C,R60*%
X47210000Y-156050000D03*
X46190000Y-156050000D03*
%TD*%
D16*
%TO.C,R65*%
X23950000Y-152500000D03*
X30050000Y-152500000D03*
%TD*%
D12*
%TO.C,R56*%
X52775000Y-132615000D03*
X52775000Y-133635000D03*
%TD*%
D16*
%TO.C,R74*%
X31950000Y-156500000D03*
X38050000Y-156500000D03*
%TD*%
D59*
%TO.C,Q1*%
X38037500Y-164905000D03*
X38037500Y-163635000D03*
X38037500Y-162365000D03*
X38037500Y-161095000D03*
X32962500Y-161095000D03*
X32962500Y-162365000D03*
X32962500Y-163635000D03*
X32962500Y-164905000D03*
%TD*%
D18*
%TO.C,D9*%
X83000000Y-177150000D03*
X83000000Y-175850000D03*
X81000000Y-175850000D03*
X81000000Y-177150000D03*
%TD*%
D49*
%TO.C,SW2*%
X124200000Y-152500000D03*
X118800000Y-152500000D03*
%TD*%
D13*
%TO.C,C51*%
X41500000Y-167125000D03*
X41500000Y-168675000D03*
%TD*%
D27*
%TO.C,D6*%
X36000000Y-117515000D03*
X36000000Y-118485000D03*
%TD*%
D60*
%TO.C,U3*%
X51607500Y-155325000D03*
X50257500Y-155325000D03*
X51607500Y-156675000D03*
X50257500Y-156675000D03*
D61*
X52182500Y-154037500D03*
X51682500Y-154037500D03*
X51182500Y-154037500D03*
X50682500Y-154037500D03*
X50182500Y-154037500D03*
X49682500Y-154037500D03*
D62*
X48970000Y-154750000D03*
X48970000Y-155250000D03*
X48970000Y-155750000D03*
X48970000Y-156250000D03*
X48970000Y-156750000D03*
X48970000Y-157250000D03*
D61*
X49682500Y-157962500D03*
X50182500Y-157962500D03*
X50682500Y-157962500D03*
X51182500Y-157962500D03*
X51682500Y-157962500D03*
X52182500Y-157962500D03*
D62*
X52895000Y-157250000D03*
X52895000Y-156750000D03*
X52895000Y-156250000D03*
X52895000Y-155750000D03*
X52895000Y-155250000D03*
X52895000Y-154750000D03*
%TD*%
D23*
%TO.C,R1*%
X104300000Y-132210000D03*
X104300000Y-131190000D03*
%TD*%
D18*
%TO.C,D17*%
X111000000Y-160150000D03*
X111000000Y-158850000D03*
X109000000Y-158850000D03*
X109000000Y-160150000D03*
%TD*%
D16*
%TO.C,R68*%
X23950000Y-156500000D03*
X30050000Y-156500000D03*
%TD*%
D28*
%TO.C,C41*%
X131400000Y-148700000D03*
X131400000Y-143300000D03*
%TD*%
D19*
%TO.C,C52*%
X110450000Y-134800000D03*
X112350000Y-134800000D03*
%TD*%
D12*
%TO.C,R37*%
X104200000Y-151990000D03*
X104200000Y-153010000D03*
%TD*%
D23*
%TO.C,R42*%
X113300000Y-155310000D03*
X113300000Y-154290000D03*
%TD*%
D63*
%TO.C,D12*%
X121000000Y-176800000D03*
X121000000Y-172800000D03*
%TD*%
D29*
%TO.C,C48*%
X52755000Y-131625000D03*
X51795000Y-131625000D03*
%TD*%
D16*
%TO.C,R75*%
X35950000Y-134000000D03*
X42050000Y-134000000D03*
%TD*%
D52*
%TO.C,R52*%
X68000000Y-126000000D03*
X68721248Y-125278752D03*
%TD*%
D11*
%TO.C,R48*%
X62210000Y-144900000D03*
X61190000Y-144900000D03*
%TD*%
D64*
%TO.C,L1*%
X59000000Y-161150000D03*
X59000000Y-166850000D03*
%TD*%
D14*
%TO.C,C10*%
X58750000Y-156100000D03*
X56850000Y-156100000D03*
%TD*%
D21*
%TO.C,C40*%
X126800000Y-149550000D03*
X126800000Y-147650000D03*
%TD*%
D12*
%TO.C,R31*%
X106500000Y-131190000D03*
X106500000Y-132210000D03*
%TD*%
D19*
%TO.C,C22*%
X49550000Y-133075000D03*
X51450000Y-133075000D03*
%TD*%
D18*
%TO.C,D20*%
X126000000Y-160150000D03*
X126000000Y-158850000D03*
X124000000Y-158850000D03*
X124000000Y-160150000D03*
%TD*%
D12*
%TO.C,R55*%
X38200000Y-112890000D03*
X38200000Y-113910000D03*
%TD*%
D16*
%TO.C,R71*%
X35950000Y-126000000D03*
X42050000Y-126000000D03*
%TD*%
D12*
%TO.C,R54*%
X53800000Y-132615000D03*
X53800000Y-133635000D03*
%TD*%
%TO.C,R26*%
X87700000Y-168290000D03*
X87700000Y-169310000D03*
%TD*%
D22*
%TO.C,C49*%
X54600000Y-135805000D03*
X54600000Y-134845000D03*
%TD*%
D15*
%TO.C,R59*%
X121640000Y-132900000D03*
X122660000Y-132900000D03*
%TD*%
D11*
%TO.C,R41*%
X120410000Y-147700000D03*
X119390000Y-147700000D03*
%TD*%
D12*
%TO.C,R78*%
X37500000Y-117490000D03*
X37500000Y-118510000D03*
%TD*%
D22*
%TO.C,C28*%
X70600000Y-114980000D03*
X70600000Y-114020000D03*
%TD*%
D16*
%TO.C,R62*%
X24950000Y-121700000D03*
X31050000Y-121700000D03*
%TD*%
%TO.C,R76*%
X31950000Y-144500000D03*
X38050000Y-144500000D03*
%TD*%
D63*
%TO.C,D13*%
X124500000Y-176800000D03*
X124500000Y-172800000D03*
%TD*%
D65*
%TO.C,U4*%
X44900000Y-161100000D03*
X44400000Y-161100000D03*
X43900000Y-161100000D03*
X43400000Y-161100000D03*
X42900000Y-161100000D03*
X42900000Y-165500000D03*
X43400000Y-165500000D03*
X43900000Y-165500000D03*
X44400000Y-165500000D03*
X44900000Y-165500000D03*
%TD*%
D16*
%TO.C,R67*%
X24950000Y-125600000D03*
X31050000Y-125600000D03*
%TD*%
D14*
%TO.C,C25*%
X101250000Y-131700000D03*
X99350000Y-131700000D03*
%TD*%
D11*
%TO.C,R40*%
X126500000Y-127200000D03*
X125480000Y-127200000D03*
%TD*%
D39*
%TO.C,C23*%
X99425000Y-174300000D03*
X100975000Y-174300000D03*
%TD*%
D29*
%TO.C,C55*%
X60480000Y-142450000D03*
X59520000Y-142450000D03*
%TD*%
D66*
%TO.C,U11*%
X52835000Y-135720000D03*
X51975000Y-135720000D03*
X51115000Y-135720000D03*
X52835000Y-136680000D03*
X51975000Y-136680000D03*
X51115000Y-136680000D03*
D67*
X52975000Y-134725000D03*
X52475000Y-134725000D03*
X51975000Y-134725000D03*
X51475000Y-134725000D03*
X50975000Y-134725000D03*
X50975000Y-137675000D03*
X51475000Y-137675000D03*
X51975000Y-137675000D03*
X52475000Y-137675000D03*
X52975000Y-137675000D03*
D68*
X53525000Y-135950000D03*
X50425000Y-135950000D03*
X53525000Y-136450000D03*
X50425000Y-136450000D03*
%TD*%
D18*
%TO.C,D11*%
X95000000Y-177150000D03*
X95000000Y-175850000D03*
X93000000Y-175850000D03*
X93000000Y-177150000D03*
%TD*%
D16*
%TO.C,R64*%
X23950000Y-140500000D03*
X30050000Y-140500000D03*
%TD*%
D11*
%TO.C,R9*%
X45610000Y-154650000D03*
X44590000Y-154650000D03*
%TD*%
D69*
%TO.C,Q3*%
X108550000Y-133962500D03*
X106650000Y-133962500D03*
X107600000Y-135837500D03*
%TD*%
D50*
%TO.C,C53*%
X100420000Y-120300000D03*
X101380000Y-120300000D03*
%TD*%
D22*
%TO.C,C13*%
X42700000Y-167880000D03*
X42700000Y-166920000D03*
%TD*%
D16*
%TO.C,R70*%
X31950000Y-148500000D03*
X38050000Y-148500000D03*
%TD*%
D29*
%TO.C,C31*%
X120380000Y-148700000D03*
X119420000Y-148700000D03*
%TD*%
D16*
%TO.C,R63*%
X23950000Y-148500000D03*
X30050000Y-148500000D03*
%TD*%
D18*
%TO.C,D8*%
X77000000Y-177150000D03*
X77000000Y-175850000D03*
X75000000Y-175850000D03*
X75000000Y-177150000D03*
%TD*%
D11*
%TO.C,R38*%
X127310000Y-151000000D03*
X126290000Y-151000000D03*
%TD*%
D70*
%TO.C,U12*%
X96137500Y-121425000D03*
X96137500Y-122075000D03*
X96137500Y-122725000D03*
X96137500Y-123375000D03*
X96137500Y-124025000D03*
X96137500Y-124675000D03*
X96137500Y-125325000D03*
X96137500Y-125975000D03*
X96137500Y-126625000D03*
X96137500Y-127275000D03*
X96137500Y-127925000D03*
X96137500Y-128575000D03*
X101862500Y-128575000D03*
X101862500Y-127925000D03*
X101862500Y-127275000D03*
X101862500Y-126625000D03*
X101862500Y-125975000D03*
X101862500Y-125325000D03*
X101862500Y-124675000D03*
X101862500Y-124025000D03*
X101862500Y-123375000D03*
X101862500Y-122725000D03*
X101862500Y-122075000D03*
X101862500Y-121425000D03*
%TD*%
D71*
%TO.C,D4*%
X103200000Y-132185000D03*
X103200000Y-131215000D03*
%TD*%
D30*
%TO.C,SW4*%
X105800000Y-166500000D03*
X111200000Y-166500000D03*
%TD*%
D29*
%TO.C,C35*%
X60480000Y-141500000D03*
X59520000Y-141500000D03*
%TD*%
D49*
%TO.C,SW5*%
X124200000Y-166500000D03*
X118800000Y-166500000D03*
%TD*%
D10*
%TO.C,C9*%
X55500000Y-156920000D03*
X55500000Y-157880000D03*
%TD*%
D11*
%TO.C,R2*%
X98910000Y-120300000D03*
X97890000Y-120300000D03*
%TD*%
D72*
%TO.C,DIP1*%
X90540000Y-130445000D03*
X90540000Y-129175000D03*
X90540000Y-127905000D03*
X90540000Y-126635000D03*
X90540000Y-125365000D03*
X90540000Y-124095000D03*
X90540000Y-122825000D03*
X90540000Y-121555000D03*
X85460000Y-121555000D03*
X85460000Y-122825000D03*
X85460000Y-124095000D03*
X85460000Y-125365000D03*
X85460000Y-126635000D03*
X85460000Y-127905000D03*
X85460000Y-129175000D03*
X85460000Y-130445000D03*
%TD*%
D73*
%TO.C,D1*%
X46967500Y-151000000D03*
X45997500Y-151000000D03*
%TD*%
M02*
