M48
; DRILL file {KiCad 9.0.7} date 2026-01-23T21:05:00+0200
; FORMAT={-:-/ absolute / metric / decimal}
; #@! TF.CreationDate,2026-01-23T21:05:00+02:00
; #@! TF.GenerationSoftware,Kicad,Pcbnew,9.0.7
; #@! TF.FileFunction,Plated,1,4,PTH
FMAT,2
METRIC
; #@! TA.AperFunction,Plated,PTH,ViaDrill
T1C0.300
; #@! TA.AperFunction,Plated,PTH,ComponentDrill
T2C0.300
; #@! TA.AperFunction,Plated,PTH,ViaDrill
T3C0.500
; #@! TA.AperFunction,Plated,PTH,ComponentDrill
T4C0.600
; #@! TA.AperFunction,Plated,PTH,ComponentDrill
T5C0.900
; #@! TA.AperFunction,Plated,PTH,ViaDrill
T6C1.000
; #@! TA.AperFunction,Plated,PTH,ComponentDrill
T7C1.000
; #@! TA.AperFunction,Plated,PTH,ComponentDrill
T8C1.190
; #@! TA.AperFunction,Plated,PTH,ComponentDrill
T9C2.200
; #@! TA.AperFunction,Plated,PTH,ViaDrill
T10C3.000
%
G90
G05
T1
X21.75Y-120.25
X21.75Y-122.95
X21.75Y-131.65
X21.75Y-134.8
X21.75Y-137.7
X21.75Y-140.5
X21.75Y-144.5
X21.75Y-148.5
X21.75Y-152.5
X21.75Y-156.45
X21.75Y-159.4
X21.8Y-125.8
X21.8Y-128.85
X22.0Y-114.5
X22.0Y-118.0
X22.0Y-167.5
X22.0Y-171.0
X22.0Y-175.0
X22.5Y-112.0
X22.5Y-163.5
X23.0Y-178.0
X24.0Y-118.0
X24.0Y-165.5
X25.0Y-111.0
X25.0Y-173.0
X25.5Y-170.0
X25.5Y-179.0
X26.0Y-118.0
X26.0Y-167.0
X27.5Y-111.0
X27.7Y-116.1
X28.0Y-118.0
X28.0Y-167.0
X28.0Y-176.0
X28.5Y-113.9
X29.0Y-172.5
X29.115Y-110.915
X29.5Y-179.0
X30.4Y-115.0
X30.4Y-116.0
X32.0Y-175.3
X32.3Y-118.0
X32.5Y-111.0
X32.8Y-115.3
X33.0Y-172.5
X33.0Y-179.0
X34.0Y-167.0
X34.5Y-118.0
X35.0Y-111.0
X35.2Y-115.3
X35.5Y-169.5
X36.0Y-119.5
X36.0Y-167.0
X36.2Y-175.6
X36.5Y-179.0
X36.7Y-116.8
X36.7Y-163.0
X36.7Y-164.3
X36.7Y-165.6
X37.0Y-172.5
X37.5Y-121.0
X37.8Y-116.8
X37.9Y-111.5
X38.0Y-167.0
X38.1Y-163.0
X38.1Y-164.3
X38.1Y-165.6
X38.2Y-112.3
X38.8Y-117.55
X39.22Y-118.6
X39.5Y-122.5
X39.7Y-162.6
X39.7Y-163.6
X39.7Y-164.6
X39.7Y-165.6
X40.0Y-167.0
X40.4Y-169.8
X40.4Y-179.0
X40.45Y-120.2
X40.45Y-173.6
X40.5Y-163.1
X40.5Y-164.1
X40.5Y-165.1
X40.5Y-176.55
X40.645Y-117.7
X41.009Y-157.546
X41.3Y-161.6
X41.3Y-163.6
X41.3Y-164.6
X41.5Y-143.3
X41.5Y-146.0
X41.6Y-117.9
X41.95Y-157.997
X42.0Y-121.05
X42.0Y-148.9
X42.0Y-151.7
X42.1Y-163.1
X42.1Y-164.1
X42.2Y-161.2
X42.2Y-167.0
X42.325Y-119.3
X42.6Y-141.2
X42.6Y-157.374
X42.7Y-168.5
X42.9Y-117.9
X42.9Y-148.5
X42.9Y-153.6
X43.8Y-115.4
X44.0Y-111.0
X44.1Y-120.35
X44.45Y-117.9
X44.6Y-154.0
X44.72Y-158.22
X45.0Y-159.5
X45.095Y-120.5
X45.2Y-133.8
X45.2Y-161.9
X45.2Y-163.1
X45.2Y-164.1
X45.25Y-138.05
X45.35Y-160.4
X45.4Y-117.9
X45.5Y-142.7
X45.7Y-146.8
X45.8Y-156.1
X45.8Y-163.6
X46.0Y-129.0
X46.0Y-143.5
X46.05Y-151.9
X46.1Y-159.6
X46.15Y-120.35
X46.19Y-157.6
X46.4Y-117.65
X46.4Y-163.1
X46.4Y-164.1
X46.5Y-140.8
X46.8Y-161.9
X46.9Y-160.4
X47.1Y-144.45
X47.195Y-120.75
X47.25Y-140.05
X47.295Y-127.6
X47.3Y-118.55
X47.3Y-145.7
X47.395Y-123.0
X47.4Y-141.7
X47.45Y-152.6
X47.6Y-117.55
X47.8Y-157.0
X48.0Y-142.5
X48.15Y-119.4
X48.25Y-158.85
X48.3Y-152.1
X48.3Y-160.4
X48.375Y-161.9
X48.4Y-153.8
X48.4Y-163.5
X48.7Y-117.75
X48.85Y-158.05
X49.295Y-123.15
X49.3Y-164.1
X49.345Y-121.35
X49.35Y-119.4
X49.395Y-124.8
X49.5Y-160.4
X49.5Y-162.5
X49.775Y-132.3
X49.775Y-134.225
X49.775Y-135.8
X49.775Y-136.625
X49.8Y-114.0
X49.8Y-151.55
X49.9Y-137.95
X49.9Y-140.05
X49.9Y-142.45
X49.9Y-146.25
X49.9Y-147.2
X49.9Y-158.6
X50.224Y-131.4
X50.7Y-160.5
X50.7Y-162.5
X50.7Y-164.5
X50.75Y-116.6
X50.8Y-115.1
X51.0Y-158.6
X51.1Y-132.1
X51.1Y-134.1
X51.2Y-121.5
X51.2Y-122.9
X51.2Y-124.4
X51.25Y-119.4
X51.3Y-166.0
X51.45Y-138.3
X51.45Y-139.75
X51.45Y-141.3
X51.5Y-111.2
X51.5Y-160.5
X51.5Y-162.5
X51.6Y-164.3
X51.8Y-134.1
X51.95Y-158.55
X52.2Y-132.8
X52.7Y-159.0
X52.7Y-160.55
X52.7Y-162.55
X52.9Y-116.1
X52.9Y-117.5
X52.9Y-119.0
X53.1Y-121.5
X53.1Y-122.9
X53.1Y-124.4
X53.2Y-165.1
X53.35Y-131.625
X53.55Y-160.05
X53.7Y-139.6
X53.85Y-140.3
X53.85Y-160.8
X53.85Y-161.6
X53.85Y-162.4
X53.85Y-163.25
X53.85Y-164.1
X54.0Y-138.2
X54.1Y-153.9
X54.475Y-131.625
X54.5Y-125.0
X54.5Y-126.5
X54.6Y-136.425
X54.7Y-116.1
X54.7Y-117.5
X54.7Y-119.0
X54.75Y-137.45
X54.8Y-122.5
X55.2Y-142.1
X55.2Y-146.85
X55.4Y-149.9
X55.4Y-152.2
X55.525Y-133.65
X55.55Y-134.9
X56.1Y-154.0
X56.1Y-155.0
X56.1Y-156.1
X56.25Y-136.75
X56.45Y-149.9
X56.5Y-118.5
X56.5Y-126.5
X56.5Y-152.2
X56.8Y-131.5
X56.95Y-146.125
X57.2Y-116.2
X57.45Y-149.9
X57.5Y-148.7
X57.55Y-139.5
X57.8Y-152.2
X57.975Y-147.3
X58.0Y-117.1
X58.0Y-136.75
X58.0Y-155.1
X58.3Y-132.5
X58.7Y-116.2
X58.8Y-139.5
X58.9Y-155.05
X59.0Y-126.5
X59.15Y-144.0
X59.45Y-136.95
X59.45Y-149.25
X59.45Y-150.3
X59.45Y-151.6
X59.5Y-117.1
X59.65Y-139.5
X59.75Y-140.537
X59.8Y-131.5
X59.8Y-143.4
X59.9Y-148.2
X60.2Y-116.2
X60.2Y-154.25
X60.45Y-139.5
X60.5Y-144.05
X60.9Y-140.537
X60.993Y-153.562
X61.2Y-141.5
X61.25Y-137.05
X61.35Y-132.5
X61.6Y-110.8
X62.0Y-126.5
X62.0Y-142.35
X62.0Y-146.15
X62.15Y-153.6
X62.25Y-150.9
X62.35Y-138.5
X62.35Y-140.45
X62.5Y-147.4
X62.9Y-131.5
X62.9Y-146.15
X63.7Y-140.537
X63.8Y-146.15
X64.25Y-153.4
X64.35Y-138.5
X64.65Y-139.5
X64.75Y-150.9
X64.8Y-148.1
X65.0Y-126.5
X65.16Y-152.96
X65.2Y-140.1
X65.4Y-113.5
X65.4Y-115.5
X65.5Y-111.5
X65.55Y-139.4
X66.2Y-131.5
X66.6Y-147.4
X66.9Y-137.0
X67.3Y-150.9
X67.5Y-126.5
X67.75Y-132.5
X68.3Y-148.1
X68.7Y-137.0
X69.3Y-131.5
X69.5Y-126.2
X69.8Y-150.9
X70.2Y-113.5
X70.3Y-147.4
X70.4Y-137.0
X71.1Y-111.0
X71.1Y-116.1
X71.1Y-123.3
X71.4Y-124.3
X71.8Y-139.6
X71.8Y-142.8
X72.0Y-113.5
X72.0Y-129.5
X72.1Y-147.4
X72.5Y-132.4
X72.5Y-135.2
X73.0Y-121.5
X73.5Y-145.9
X73.8Y-138.0
X73.8Y-140.9
X74.7Y-128.3
X74.8Y-144.4
X75.5Y-126.1
X76.3Y-119.4
X77.9Y-111.0
X77.9Y-113.5
X77.9Y-116.1
X79.0Y-130.15
X81.0Y-119.3
X81.0Y-136.5
X81.25Y-124.45
X83.0Y-116.1
X83.45Y-111.25
X83.5Y-164.5
X83.5Y-167.0
X83.7Y-124.5
X83.9Y-127.9
X84.55Y-119.55
X84.7Y-168.29
X84.7Y-169.31
X85.5Y-119.6
X86.0Y-162.0
X86.6Y-116.3
X86.7Y-130.5
X87.2Y-168.3
X87.2Y-169.31
X87.35Y-119.45
X87.5Y-167.1
X87.9Y-130.5
X88.05Y-110.9
X88.1Y-124.5
X88.1Y-127.9
X89.0Y-119.6
X89.0Y-158.5
X89.065Y-113.635
X89.1Y-130.5
X89.569Y-168.1
X90.9Y-117.0
X91.0Y-163.0
X91.125Y-168.1
X91.8Y-119.4
X92.0Y-155.5
X92.19Y-124.8
X92.9Y-117.0
X93.2Y-121.95
X93.3Y-112.35
X93.3Y-113.6
X93.495Y-152.538
X93.5Y-147.0
X93.9Y-172.1
X94.2Y-122.2
X95.0Y-159.0
X95.3Y-119.4
X95.4Y-110.85
X95.5Y-165.0
X95.5Y-169.5
X95.7Y-172.1
X96.0Y-135.5
X96.0Y-147.0
X96.0Y-152.5
X96.3Y-117.0
X96.5Y-138.5
X97.3Y-141.19
X97.5Y-122.7
X97.5Y-127.8
X97.6Y-172.1
X97.776Y-121.422
X98.0Y-160.5
X98.4Y-119.4
X98.45Y-110.85
X98.5Y-145.5
X98.5Y-155.5
X98.6Y-143.25
X98.8Y-117.0
X99.35Y-130.0
X99.35Y-130.8
X99.5Y-138.8
X99.5Y-164.5
X99.7Y-169.4
X99.9Y-120.3
X100.01Y-122.91
X100.5Y-126.9
X101.1Y-110.85
X101.3Y-117.0
X101.5Y-148.85
X101.5Y-153.0
X101.5Y-159.5
X101.7Y-113.7
X101.9Y-120.3
X102.0Y-146.0
X102.5Y-129.5
X102.5Y-132.2
X102.8Y-137.55
X102.8Y-164.1
X102.9Y-143.25
X102.9Y-162.5
X102.9Y-166.7
X102.9Y-170.3
X103.3Y-125.375
X103.4Y-124.0
X103.7Y-118.4
X103.85Y-110.85
X103.9Y-126.0
X104.0Y-154.5
X104.1Y-125.0
X104.1Y-158.1
X104.2Y-134.1
X104.4Y-113.7
X104.5Y-146.0
X104.55Y-128.65
X104.85Y-120.2
X104.85Y-122.65
X104.85Y-124.2
X104.85Y-125.85
X104.9Y-144.1
X105.4Y-130.65
X105.4Y-149.0
X105.4Y-150.6
X105.5Y-137.55
X105.5Y-146.2
X106.0Y-158.1
X106.3Y-164.5
X106.65Y-135.2
X107.05Y-113.65
X107.15Y-129.95
X107.2Y-144.65
X107.2Y-146.8
X107.4Y-168.9
X107.5Y-125.5
X107.5Y-154.5
X107.5Y-163.6
X107.6Y-110.85
X107.6Y-128.2
X108.3Y-140.05
X108.35Y-153.4
X108.5Y-123.0
X108.5Y-128.4
X108.6Y-131.45
X108.7Y-138.8
X108.8Y-163.6
X109.3Y-128.9
X109.5Y-126.5
X109.55Y-138.8
X110.0Y-120.5
X110.4Y-113.4
X110.4Y-129.1
X110.45Y-135.95
X110.8Y-140.1
X110.9Y-145.6
X111.0Y-150.1
X111.0Y-158.1
X111.0Y-168.9
X111.3Y-110.8
X111.7Y-146.2
X112.4Y-145.6
X112.8Y-155.3
X112.8Y-163.72
X112.8Y-166.5
X113.0Y-160.2
X113.1Y-153.3
X113.45Y-151.45
X113.5Y-129.0
X113.8Y-123.8
X113.8Y-137.3
X113.9Y-146.1
X114.0Y-126.0
X114.045Y-123.0
X114.15Y-113.4
X114.15Y-152.05
X114.55Y-110.8
X114.7Y-168.9
X115.5Y-162.7
X115.8Y-130.9
X115.8Y-156.1
X116.1Y-128.5
X116.1Y-158.1
X116.312Y-153.287
X116.45Y-141.95
X116.45Y-143.3
X116.45Y-144.65
X116.6Y-148.6
X116.9Y-153.9
X117.1Y-152.4
X117.2Y-163.7
X117.4Y-113.4
X117.562Y-154.537
X117.6Y-160.6
X118.3Y-110.8
X118.85Y-132.05
X118.9Y-141.9
X118.9Y-146.5
X119.0Y-170.6
X120.3Y-163.2
X120.4Y-148.2
X120.4Y-153.2
X120.4Y-155.6
X120.5Y-170.5
X120.95Y-133.7
X121.0Y-158.1
X121.05Y-179.0
X121.1Y-113.4
X121.2Y-128.4
X121.2Y-171.2
X121.3Y-168.4
X121.65Y-110.8
X121.7Y-141.2
X122.2Y-160.8
X122.2Y-163.2
X122.75Y-174.55
X122.75Y-175.35
X122.75Y-176.15
X122.85Y-131.3
X122.9Y-158.0
X123.8Y-150.7
X124.0Y-171.2
X124.1Y-168.4
X124.6Y-128.6
X124.6Y-141.5
X124.85Y-113.6
X125.0Y-156.35
X125.0Y-171.2
X125.1Y-142.6
X125.1Y-144.8
X125.1Y-147.1
X125.1Y-149.4
X125.1Y-164.2
X125.5Y-110.8
X125.7Y-141.5
X126.0Y-179.0
X126.4Y-123.3
X126.5Y-126.6
X126.6Y-169.9
X126.6Y-172.4
X126.7Y-141.5
X126.8Y-166.4
X127.0Y-131.5
X127.0Y-137.5
X127.025Y-133.5
X127.025Y-135.5
X127.2Y-142.6
X127.2Y-144.8
X127.2Y-152.5
X127.2Y-168.8
X127.4Y-159.6
X127.4Y-161.7
X127.5Y-124.2
X127.7Y-156.35
X127.8Y-141.5
X128.0Y-116.5
X128.0Y-132.525
X128.0Y-134.5
X128.0Y-136.475
X128.1Y-120.5
X128.2Y-126.6
X128.3Y-110.85
X128.8Y-158.6
X128.8Y-164.05
X128.8Y-166.55
X128.95Y-161.05
X129.0Y-131.5
X129.0Y-133.5
X129.0Y-135.5
X129.0Y-137.5
X129.4Y-173.25
X129.7Y-161.59
X129.894Y-166.125
X129.897Y-164.474
X130.0Y-132.525
X130.0Y-134.5
X130.0Y-136.475
X130.0Y-153.6
X130.19Y-160.6
X130.35Y-165.3
X130.6Y-126.8
X130.7Y-118.3
X130.7Y-120.5
X130.9Y-137.5
X130.975Y-133.5
X130.975Y-135.5
X131.0Y-110.9
X131.0Y-112.7
X131.0Y-131.5
X131.1Y-114.8
X131.25Y-126.0
X131.3Y-123.0
X131.95Y-178.85
X132.0Y-116.9
X132.0Y-126.0
X132.1Y-124.1
X132.2Y-160.1
X132.2Y-169.2
X132.392Y-167.4
X132.4Y-161.5
X132.4Y-162.6
X132.4Y-173.2
X132.5Y-144.5
X132.7Y-118.3
X132.8Y-141.8
X132.9Y-145.9
X132.9Y-148.0
X132.9Y-149.7
X133.0Y-120.0
X133.1Y-122.4
X133.1Y-124.0
X133.2Y-126.8
X133.2Y-143.4
X133.2Y-153.4
X133.8Y-144.8
X133.8Y-147.0
X133.8Y-149.0
X133.8Y-150.5
X133.95Y-125.9
X133.95Y-127.7
X133.95Y-129.2
X133.95Y-130.1
X133.95Y-131.7
X133.95Y-133.3
X133.95Y-134.9
X133.95Y-136.5
X133.95Y-138.1
X133.95Y-139.843
X133.95Y-142.6
X134.0Y-121.4
X134.0Y-123.3
X134.2Y-118.7
X134.3Y-158.4
X134.4Y-153.9
X135.0Y-152.5
X135.3Y-164.9
X135.4Y-171.1
X135.95Y-178.85
X136.1Y-153.6
X136.4Y-155.8
X137.01Y-158.85
X137.1Y-154.6
X137.5Y-156.1
X138.45Y-177.65
X138.9Y-156.4
X138.95Y-171.4
X139.0Y-174.75
X139.1Y-162.0
X139.1Y-164.9
X139.1Y-168.1
X139.2Y-158.1
T2
X49.883Y-154.95
X49.883Y-156.0
X49.883Y-157.05
X50.932Y-154.95
X50.932Y-155.95
X50.932Y-157.05
X51.115Y-135.72
X51.115Y-136.68
X51.975Y-136.2
X51.982Y-154.95
X51.982Y-155.95
X51.982Y-157.05
X52.835Y-135.72
X52.835Y-136.68
T3
X23.0Y-133.5
X23.0Y-136.5
X23.0Y-139.5
X23.0Y-141.5
X23.0Y-143.5
X23.0Y-145.5
X23.0Y-147.5
X23.0Y-149.5
X23.0Y-151.5
X23.0Y-153.5
X23.0Y-155.5
X23.0Y-157.5
X23.5Y-120.0
X23.5Y-121.5
X23.5Y-123.0
X23.5Y-124.5
X23.5Y-126.0
X23.5Y-127.5
X23.5Y-129.0
X23.5Y-130.5
X23.5Y-132.0
X24.0Y-135.0
X24.0Y-138.0
X24.0Y-146.5
X24.0Y-150.5
X24.0Y-154.5
X24.0Y-158.5
X24.0Y-160.0
X24.0Y-161.5
X24.5Y-133.5
X25.0Y-163.0
X25.5Y-134.5
X25.5Y-136.0
X25.5Y-137.5
X25.5Y-139.0
X25.5Y-140.5
X25.5Y-142.0
X25.5Y-143.5
X25.5Y-145.0
X25.5Y-146.5
X25.5Y-148.0
X25.5Y-149.5
X25.5Y-151.0
X25.5Y-152.5
X25.5Y-154.0
X25.5Y-155.5
X25.5Y-157.0
X25.5Y-158.5
X25.5Y-160.0
X25.5Y-161.5
X26.0Y-164.5
X26.5Y-120.0
X26.5Y-121.5
X26.5Y-123.0
X26.5Y-124.5
X26.5Y-126.0
X26.5Y-127.5
X26.5Y-129.0
X26.5Y-130.5
X26.5Y-132.0
X27.0Y-160.0
X27.0Y-161.5
X27.0Y-163.0
X27.0Y-165.5
X28.5Y-136.0
X28.5Y-140.0
X28.5Y-141.5
X28.5Y-143.0
X28.5Y-144.5
X28.5Y-146.0
X28.5Y-147.5
X28.5Y-149.0
X28.5Y-150.5
X28.5Y-152.0
X28.5Y-153.5
X28.5Y-155.0
X28.5Y-156.5
X28.5Y-158.0
X28.5Y-161.0
X28.5Y-162.5
X28.5Y-164.0
X28.5Y-165.5
X29.0Y-137.5
X29.5Y-120.0
X29.5Y-121.5
X29.5Y-123.0
X29.5Y-124.5
X29.5Y-126.0
X29.5Y-127.5
X29.5Y-129.0
X29.5Y-130.5
X29.5Y-132.0
X30.0Y-142.5
X30.0Y-146.5
X30.0Y-150.5
X30.0Y-154.5
X30.0Y-160.5
X30.0Y-162.0
X30.0Y-163.5
X30.0Y-165.0
X30.5Y-137.5
X31.5Y-161.0
X31.5Y-162.5
X31.5Y-164.0
X31.5Y-165.5
X32.0Y-137.5
X32.5Y-120.0
X32.5Y-121.5
X32.5Y-123.0
X32.5Y-124.5
X32.5Y-126.0
X32.5Y-127.5
X32.5Y-129.0
X32.5Y-130.5
X32.5Y-132.0
X33.5Y-137.5
X34.0Y-140.0
X34.0Y-141.5
X34.0Y-143.0
X34.0Y-144.5
X34.0Y-146.0
X34.0Y-147.5
X34.0Y-149.0
X34.0Y-150.5
X34.0Y-152.0
X34.0Y-153.5
X34.0Y-155.0
X34.0Y-156.5
X34.0Y-158.0
X34.5Y-121.0
X34.5Y-122.5
X34.5Y-124.0
X34.5Y-125.5
X34.5Y-127.0
X34.5Y-128.5
X34.5Y-130.0
X34.5Y-131.5
X34.5Y-133.0
X34.5Y-134.5
X34.5Y-136.0
X34.5Y-161.0
X34.5Y-162.5
X34.5Y-164.0
X34.5Y-165.5
X35.0Y-137.5
X36.0Y-122.0
X36.0Y-123.5
X36.0Y-128.0
X36.0Y-132.0
X36.0Y-136.0
X36.5Y-139.5
X36.5Y-141.0
X36.5Y-142.5
X36.5Y-144.0
X36.5Y-145.5
X36.5Y-147.0
X36.5Y-148.5
X36.5Y-150.0
X36.5Y-151.5
X36.5Y-153.0
X36.5Y-154.5
X36.5Y-156.0
X36.5Y-157.5
X36.5Y-159.0
X37.5Y-124.5
X37.5Y-126.0
X37.5Y-127.5
X37.5Y-129.0
X37.5Y-130.5
X37.5Y-132.0
X37.5Y-133.5
X37.5Y-135.0
X38.0Y-138.5
X38.0Y-142.5
X38.0Y-146.5
X38.0Y-150.5
X38.0Y-154.5
X38.0Y-159.0
X39.0Y-137.5
X39.5Y-139.0
X39.5Y-140.5
X39.5Y-142.0
X39.5Y-143.5
X39.5Y-145.0
X39.5Y-146.5
X39.5Y-148.0
X39.5Y-149.5
X39.5Y-151.0
X39.5Y-152.5
X39.5Y-154.0
X39.5Y-155.5
X39.5Y-157.0
X39.5Y-158.5
X40.0Y-136.5
X40.5Y-124.5
X40.5Y-126.0
X40.5Y-127.5
X40.5Y-129.0
X40.5Y-130.5
X40.5Y-132.0
X40.5Y-133.5
X40.5Y-135.0
X40.5Y-138.0
X41.0Y-139.5
X42.0Y-124.0
X42.0Y-128.0
X42.0Y-132.0
X42.0Y-136.0
X42.0Y-137.5
X43.5Y-124.5
X43.5Y-126.0
X43.5Y-127.5
X43.5Y-129.0
X43.5Y-130.5
X43.5Y-132.0
X43.5Y-133.5
X43.5Y-135.0
X43.5Y-136.5
X44.5Y-172.0
X44.5Y-174.0
X44.5Y-176.0
X44.5Y-178.0
X45.5Y-171.0
X45.5Y-173.0
X45.5Y-175.0
X45.5Y-179.0
X46.5Y-170.0
X46.5Y-172.0
X46.5Y-174.0
X47.5Y-171.0
X47.5Y-173.0
X47.5Y-179.0
X48.5Y-172.0
X48.5Y-174.0
X49.5Y-171.0
X49.5Y-173.0
X49.5Y-179.0
X50.5Y-170.0
X50.5Y-172.0
X50.5Y-174.0
X50.5Y-176.0
X50.5Y-178.0
X51.5Y-171.0
X51.5Y-173.0
X51.5Y-175.0
X51.5Y-177.0
X51.5Y-179.0
X52.5Y-172.0
X52.5Y-174.0
X52.5Y-176.0
X52.5Y-178.0
X53.5Y-171.0
X53.5Y-173.0
X53.5Y-175.0
X53.5Y-177.0
X53.5Y-179.0
X54.5Y-172.0
X54.5Y-174.0
X54.5Y-176.0
X54.5Y-178.0
X55.5Y-171.0
X55.5Y-173.0
X55.5Y-179.0
X56.5Y-172.0
X56.5Y-174.0
X57.5Y-171.0
X57.5Y-173.0
X57.5Y-179.0
X58.5Y-172.0
X58.5Y-174.0
X59.5Y-171.0
X59.5Y-173.0
X59.5Y-175.0
X59.5Y-179.0
X60.5Y-157.0
X60.5Y-172.0
X60.5Y-174.0
X60.5Y-176.0
X60.5Y-178.0
X61.5Y-158.5
X62.5Y-157.0
X62.6Y-160.0
X63.5Y-155.5
X63.5Y-158.5
X63.5Y-161.5
X64.5Y-157.0
X64.5Y-160.0
X64.5Y-163.0
X65.5Y-155.5
X65.5Y-158.5
X65.5Y-161.5
X65.5Y-164.5
X65.5Y-173.5
X65.5Y-176.5
X66.5Y-157.0
X66.5Y-160.0
X66.5Y-163.0
X66.5Y-166.0
X66.5Y-172.0
X66.5Y-175.0
X66.5Y-178.0
X67.5Y-155.5
X67.5Y-158.5
X67.5Y-161.5
X67.5Y-164.5
X67.5Y-167.5
X67.5Y-170.5
X67.5Y-173.5
X67.5Y-176.5
X68.471Y-165.993
X68.5Y-157.0
X68.5Y-160.0
X68.5Y-163.0
X68.5Y-169.0
X68.5Y-172.0
X68.5Y-175.0
X68.5Y-178.0
X69.5Y-155.5
X69.5Y-158.5
X69.5Y-161.5
X69.5Y-164.5
X69.5Y-167.5
X69.5Y-170.5
X69.5Y-173.5
X69.5Y-176.5
X70.5Y-157.0
X70.5Y-160.0
X70.5Y-163.0
X70.5Y-166.0
X70.5Y-169.0
X70.5Y-172.0
X70.5Y-175.0
X70.5Y-178.0
X71.5Y-155.5
X71.5Y-158.5
X71.5Y-161.5
X71.5Y-164.5
X71.5Y-167.5
X71.5Y-170.5
X71.5Y-173.5
X71.5Y-176.5
X72.5Y-160.0
X72.5Y-163.0
X72.5Y-166.0
X72.5Y-169.0
X72.5Y-172.0
X72.5Y-175.0
X72.5Y-178.0
X73.0Y-153.8
X73.5Y-161.5
X73.5Y-164.5
X73.5Y-167.5
X73.5Y-170.5
X73.5Y-173.5
X73.5Y-176.5
X73.5Y-179.0
X74.5Y-163.0
X74.5Y-166.0
X74.5Y-169.0
X74.5Y-172.0
X75.0Y-152.0
X75.5Y-164.5
X75.5Y-167.5
X75.5Y-170.5
X75.5Y-173.5
X75.5Y-179.0
X76.5Y-169.0
X76.5Y-172.0
X77.0Y-150.0
X77.5Y-167.5
X77.5Y-170.5
X77.5Y-173.5
X77.5Y-179.0
X78.5Y-169.0
X78.5Y-172.0
X79.0Y-148.0
X79.5Y-170.5
X79.5Y-173.5
X79.5Y-179.0
X80.5Y-172.0
X81.0Y-140.1
X81.0Y-146.0
X81.5Y-173.5
X81.5Y-179.0
X83.5Y-173.5
X83.5Y-179.0
X85.5Y-173.5
X85.5Y-179.0
X87.5Y-173.5
X87.5Y-179.0
X89.5Y-173.5
X89.5Y-179.0
X91.5Y-173.5
X91.5Y-179.0
X93.5Y-173.5
X93.5Y-179.0
X95.5Y-173.5
X95.5Y-179.0
X97.5Y-173.5
X97.5Y-179.0
X99.5Y-179.0
X101.0Y-171.9
X101.5Y-179.0
X103.0Y-175.0
X103.5Y-173.0
X103.5Y-179.0
X104.5Y-172.0
X104.5Y-174.0
X105.5Y-171.0
X105.5Y-173.0
X105.5Y-179.0
X106.5Y-172.0
X106.5Y-174.0
X107.5Y-171.0
X107.5Y-173.0
X107.5Y-179.0
X108.5Y-172.0
X108.5Y-174.0
X108.5Y-176.0
X108.5Y-178.0
X109.5Y-171.0
X109.5Y-173.0
X109.5Y-175.0
X109.5Y-177.0
X109.5Y-179.0
X110.5Y-172.0
X110.5Y-174.0
X110.5Y-176.0
X110.5Y-178.0
X111.5Y-171.0
X111.5Y-173.0
X111.5Y-175.0
X111.5Y-177.0
X111.5Y-179.0
X112.5Y-172.0
X112.5Y-174.0
X112.5Y-176.0
X112.5Y-178.0
X113.5Y-171.0
X113.5Y-173.0
X113.5Y-179.0
X114.5Y-172.0
X114.5Y-174.0
X115.5Y-171.0
X115.5Y-173.0
X115.5Y-179.0
X116.5Y-172.0
X116.5Y-174.0
X117.5Y-173.0
X117.5Y-179.0
X118.5Y-174.0
X118.5Y-176.0
X118.5Y-178.0
X128.0Y-149.55
X128.5Y-147.25
X129.1Y-149.55
X129.375Y-146.375
X130.2Y-149.55
X130.25Y-145.5
T5
X62.7Y-112.5
X62.7Y-114.5
T6
X87.0Y-138.0
X87.0Y-140.5
X87.0Y-143.5
X89.0Y-140.5
X89.0Y-143.5
T7
X80.5Y-112.21
X80.5Y-114.75
X80.5Y-117.29
X80.802Y-128.658
X80.802Y-131.198
X80.802Y-133.738
X84.19Y-171.5
X86.73Y-171.5
X89.27Y-171.5
X91.81Y-171.5
X99.0Y-136.4
X101.54Y-136.4
X104.08Y-136.4
X112.0Y-132.0
X114.54Y-132.0
X117.08Y-132.0
T8
X98.92Y-141.5
X101.46Y-141.5
X104.0Y-141.5
T9
X53.7Y-113.5
X58.7Y-113.5
T10
X47.5Y-176.5
X57.5Y-176.5
X105.5Y-176.5
X115.5Y-176.5
T4
G00X39.68Y-112.325
M15
G01X39.68Y-111.525
M16
G05
G00X39.68Y-116.675
M15
G01X39.68Y-115.575
M16
G05
G00X48.32Y-112.325
M15
G01X48.32Y-111.525
M16
G05
G00X48.32Y-116.675
M15
G01X48.32Y-115.575
M16
G05
G00X133.325Y-160.68
M15
G01X134.425Y-160.68
M16
G05
G00X133.325Y-169.32
M15
G01X134.425Y-169.32
M16
G05
G00X137.675Y-160.68
M15
G01X138.475Y-160.68
M16
G05
G00X137.675Y-169.32
M15
G01X138.475Y-169.32
M16
G05
M30
