%TF.GenerationSoftware,KiCad,Pcbnew,9.0.7*%
%TF.CreationDate,2026-01-23T21:04:58+02:00*%
%TF.ProjectId,bSafe-charger-block,62536166-652d-4636-9861-726765722d62,rev?*%
%TF.SameCoordinates,Original*%
%TF.FileFunction,Profile,NP*%
%FSLAX46Y46*%
G04 Gerber Fmt 4.6, Leading zero omitted, Abs format (unit mm)*
G04 Created by KiCad (PCBNEW 9.0.7) date 2026-01-23 21:04:58*
%MOMM*%
%LPD*%
G01*
G04 APERTURE LIST*
%TA.AperFunction,Profile*%
%ADD10C,0.050000*%
%TD*%
G04 APERTURE END LIST*
D10*
X136000000Y-110000000D02*
G75*
G02*
X140000000Y-114000000I0J-4000000D01*
G01*
X85000000Y-132500000D02*
X85000000Y-143000000D01*
X92000000Y-131500000D02*
G75*
G02*
X93000000Y-132500000I0J-1000000D01*
G01*
X83000000Y-132500000D02*
G75*
G02*
X84000000Y-131500000I1000000J0D01*
G01*
X89600000Y-153000000D02*
G75*
G02*
X86400000Y-153000000I-1600000J0D01*
G01*
X86400000Y-153000000D02*
G75*
G02*
X89600000Y-153000000I1600000J0D01*
G01*
X26600000Y-176000000D02*
G75*
G02*
X23400000Y-176000000I-1600000J0D01*
G01*
X23400000Y-176000000D02*
G75*
G02*
X26600000Y-176000000I1600000J0D01*
G01*
X140000000Y-176000000D02*
G75*
G02*
X136000000Y-180000000I-4000000J0D01*
G01*
X66600000Y-135000000D02*
G75*
G02*
X63400000Y-135000000I-1600000J0D01*
G01*
X63400000Y-135000000D02*
G75*
G02*
X66600000Y-135000000I1600000J0D01*
G01*
X137600000Y-114000000D02*
G75*
G02*
X134400000Y-114000000I-1600000J0D01*
G01*
X134400000Y-114000000D02*
G75*
G02*
X137600000Y-114000000I1600000J0D01*
G01*
X32599999Y-169000001D02*
G75*
G02*
X29399999Y-169000001I-1600000J0D01*
G01*
X29399999Y-169000001D02*
G75*
G02*
X32599999Y-169000001I1600000J0D01*
G01*
X21000000Y-176000000D02*
X21000000Y-114000000D01*
X21000000Y-114000000D02*
G75*
G02*
X25000000Y-110000000I4000000J0D01*
G01*
X88000000Y-148000000D02*
G75*
G02*
X83000000Y-143000000I0J5000000D01*
G01*
X32600000Y-135000000D02*
G75*
G02*
X29400000Y-135000000I-1600000J0D01*
G01*
X29400000Y-135000000D02*
G75*
G02*
X32600000Y-135000000I1600000J0D01*
G01*
X88000000Y-146000000D02*
G75*
G02*
X85000000Y-143000000I0J3000000D01*
G01*
X140000000Y-114000000D02*
X140000000Y-176000000D01*
X93000000Y-143000000D02*
X93000000Y-132500000D01*
X137600000Y-176000000D02*
G75*
G02*
X134400000Y-176000000I-1600000J0D01*
G01*
X134400000Y-176000000D02*
G75*
G02*
X137600000Y-176000000I1600000J0D01*
G01*
X26600000Y-114000000D02*
G75*
G02*
X23400000Y-114000000I-1600000J0D01*
G01*
X23400000Y-114000000D02*
G75*
G02*
X26600000Y-114000000I1600000J0D01*
G01*
X25000000Y-110000000D02*
X136000000Y-110000000D01*
X25000000Y-180000000D02*
G75*
G02*
X21000000Y-176000000I0J4000000D01*
G01*
X83000000Y-132500000D02*
X83000000Y-143000000D01*
X91000000Y-132500000D02*
G75*
G02*
X92000000Y-131500000I1000000J0D01*
G01*
X91000000Y-143000000D02*
G75*
G02*
X88000000Y-146000000I-3000000J0D01*
G01*
X84000000Y-131500000D02*
G75*
G02*
X85000000Y-132500000I0J-1000000D01*
G01*
X93000000Y-143000000D02*
G75*
G02*
X88000000Y-148000000I-5000000J0D01*
G01*
X91000000Y-143000000D02*
X91000000Y-132500000D01*
X136000000Y-180000000D02*
X25000000Y-180000000D01*
X66600000Y-169000000D02*
G75*
G02*
X63400000Y-169000000I-1600000J0D01*
G01*
X63400000Y-169000000D02*
G75*
G02*
X66600000Y-169000000I1600000J0D01*
G01*
M02*
